# Blender 4.3.2
# www.blender.org
o Cube
v -1.000000 -1.000000 1.000000
v -1.000000 1.000000 1.000000
v -1.000000 -1.000000 -1.000000
v -1.000000 1.000000 -1.000000
v 1.000000 -1.000000 1.000000
v 1.000000 1.000000 1.000000
v 1.000000 -1.000000 -1.000000
v 1.000000 1.000000 -1.000000
v 6.000000 1.000000 -1.000000
v 6.000000 -1.000000 -1.000000
v 6.000000 -1.000000 1.000000
v 6.000000 1.000000 1.000000
v -1.000000 6.000000 1.000000
v -1.000000 6.000000 -1.000000
v 1.000000 6.000000 -1.000000
v 1.000000 6.000000 1.000000
v -1.000000 1.000000 -11.000000
v -1.000000 -1.000000 -11.000000
v 1.000000 -1.000000 -11.000000
v 1.000000 1.000000 -11.000000
vn -1.0000 -0.0000 -0.0000
vn -0.0000 -1.0000 -0.0000
vn -0.0000 -0.0000 1.0000
vn -0.0000 -0.0000 -1.0000
vn 1.0000 -0.0000 -0.0000
vn -0.0000 1.0000 -0.0000
vt 0.625000 0.000000
vt 0.375000 0.250000
vt 0.375000 0.000000
vt 0.125000 0.500000
vt 0.375000 0.500000
vt 0.375000 0.750000
vt 0.625000 0.750000
vt 0.375000 1.000000
vt 0.125000 0.750000
vt 0.625000 0.250000
vt 0.625000 0.500000
vt 0.875000 0.500000
vt 0.625000 1.000000
vt 0.875000 0.750000
s 0
f 2/1/1 3/2/1 1/3/1
f 3/4/2 19/5/2 7/5/2
f 7/5/2 11/6/2 5/6/2
f 6/7/3 1/8/3 5/6/3
f 7/5/2 1/9/2 3/4/2
f 4/10/4 15/11/4 8/11/4
f 9/11/5 11/6/5 10/5/5
f 6/7/6 9/11/6 8/11/6
f 8/11/4 10/5/4 7/5/4
f 5/6/3 12/7/3 6/7/3
f 14/12/6 16/7/6 15/11/6
f 8/11/5 16/7/5 6/7/5
f 2/1/1 14/10/1 4/10/1
f 6/7/3 13/13/3 2/13/3
f 17/10/4 19/5/4 18/2/4
f 8/11/6 17/10/6 4/10/6
f 4/10/1 18/2/1 3/2/1
f 7/5/5 20/11/5 8/11/5
f 2/1/1 4/10/1 3/2/1
f 3/4/2 18/4/2 19/5/2
f 7/5/2 10/5/2 11/6/2
f 6/7/3 2/13/3 1/8/3
f 7/5/2 5/6/2 1/9/2
f 4/10/4 14/10/4 15/11/4
f 9/11/5 12/7/5 11/6/5
f 6/7/6 12/7/6 9/11/6
f 8/11/4 9/11/4 10/5/4
f 5/6/3 11/6/3 12/7/3
f 14/12/6 13/14/6 16/7/6
f 8/11/5 15/11/5 16/7/5
f 2/1/1 13/1/1 14/10/1
f 6/7/3 16/7/3 13/13/3
f 17/10/4 20/11/4 19/5/4
f 8/11/6 20/11/6 17/10/6
f 4/10/1 17/10/1 18/2/1
f 7/5/5 19/5/5 20/11/5
